<?xml version="1.0" encoding="UTF-8" standalone="no"?>
<!-- Created with Inkscape (http://www.inkscape.org/) -->

<svg
   xmlns:dc="http://purl.org/dc/elements/1.1/"
   xmlns:cc="http://creativecommons.org/ns#"
   xmlns:rdf="http://www.w3.org/1999/02/22-rdf-syntax-ns#"
   xmlns:svg="http://www.w3.org/2000/svg"
   xmlns="http://www.w3.org/2000/svg"
   xmlns:sodipodi="http://sodipodi.sourceforge.net/DTD/sodipodi-0.dtd"
   xmlns:inkscape="http://www.inkscape.org/namespaces/inkscape"
   width="1600"
   height="900"
   id="svg2"
   version="1.1"
   inkscape:version="0.48.5 r10040"
   sodipodi:docname="seabunny_lying.svg"
   inkscape:export-filename="C:\Users\fatcloud\Documents\GitHub\playground\opencv-exps\screen_finder\seabunny_lying.png"
   inkscape:export-xdpi="90"
   inkscape:export-ydpi="90">
  <defs
     id="defs4">
    <linearGradient
       id="linearGradient3847">
      <stop
         style="stop-color:#808080;stop-opacity:1;"
         offset="0"
         id="stop3849" />
      <stop
         id="stop3855"
         offset="0.5"
         style="stop-color:#808080;stop-opacity:0.49803922;" />
      <stop
         style="stop-color:#808080;stop-opacity:0;"
         offset="1"
         id="stop3851" />
    </linearGradient>
  </defs>
  <sodipodi:namedview
     id="base"
     pagecolor="#ffffff"
     bordercolor="#666666"
     borderopacity="1.0"
     inkscape:pageopacity="0.0"
     inkscape:pageshadow="2"
     inkscape:zoom="0.7"
     inkscape:cx="614.63382"
     inkscape:cy="526.96064"
     inkscape:document-units="px"
     inkscape:current-layer="layer1"
     showgrid="false"
     inkscape:window-width="1920"
     inkscape:window-height="1018"
     inkscape:window-x="-8"
     inkscape:window-y="-8"
     inkscape:window-maximized="1" />
  <metadata
     id="metadata7">
    <rdf:RDF>
      <cc:Work
         rdf:about="">
        <dc:format>image/svg+xml</dc:format>
        <dc:type
           rdf:resource="http://purl.org/dc/dcmitype/StillImage" />
        <dc:title></dc:title>
      </cc:Work>
    </rdf:RDF>
  </metadata>
  <g
     inkscape:label="Layer 1"
     inkscape:groupmode="layer"
     id="layer1"
     transform="translate(0,-152.36218)">
    <path
       style="fill:#aaaaaa;fill-opacity:1;stroke:none"
       d="m 497.80811,535.67535 -3.05131,6.65738 0.83217,5.82522 8.82078,19.8804 -1.88598,-33.74994 z"
       id="path3829"
       inkscape:connector-curvature="0"
       sodipodi:nodetypes="cccccc" />
    <path
       style="fill:#aaaaaa;fill-opacity:1;stroke:none"
       d="m 509.94842,529.82799 1.41565,50.16425 11.83843,15.8902 -1.13826,-72.52146 z"
       id="path3833"
       inkscape:connector-curvature="0"
       sodipodi:nodetypes="ccccc" />
    <path
       style="fill:#aaaaaa;fill-opacity:1;stroke:none"
       d="m 537.88303,513.65057 0.87329,81.34067 c 2.84278,-0.18975 7.67788,-5.04344 10.50793,-5.36325 l 42.99978,-20.61228 22.88073,-18.08382 1.38696,-9.98611 -23.85568,-46.32439 -5.54783,-4.99303 -8.32175,1.94174 z"
       id="path3835"
       inkscape:connector-curvature="0"
       sodipodi:nodetypes="cccccccccc" />
    <path
       style="fill:#aaaaaa;fill-opacity:1;stroke:none"
       d="m 404.06416,581.25866 -5.88436,90.6192 30.10833,-15.69164 56.19568,-35.40423 2.54989,-7.45353 -7.81083,-16.48826 -14.14697,-29.81959 -5.27045,-7.07349 -8.04435,-1.80306 -44.24396,21.08175 z"
       id="path3823"
       inkscape:connector-curvature="0" />
    <path
       style="fill:#aaaaaa;fill-opacity:1;stroke:none"
       d="m 394.45302,585.77003 -4.70748,86.89241 -5.68822,-3.53059 -3.72678,-4.31521 4.90367,-74.73144 z"
       id="path3825"
       inkscape:connector-curvature="0" />
    <path
       style="fill:#aaaaaa;fill-opacity:1;stroke:none"
       d="m 378.36911,594.00813 -4.70748,57.86292 -17.65311,-29.02953 -3.9229,-8.23811 0.19612,-4.31521 2.9422,-4.90364 z"
       id="path3827"
       inkscape:connector-curvature="0" />
    <path
       style="fill:#dddddd;fill-opacity:1;stroke:none"
       d="m 312.85724,407.24303 c -4.85435,4.92371 -6.79609,15.60329 -6.79609,15.60329 l -1.10955,22.67674 0.76283,16.57416 2.77389,2.77389 12.89872,2.01111 35.09002,13.24547 18.85179,8.84451 13.63211,8.72848 13.73018,9.90536 6.57088,3.04023 2.45181,-1.66722 -1.47109,-5.68821 -17.26079,-24.22397 -25.89121,-27.95074 -24.02781,-24.32206 -18.83,-15.98585 -9.80727,-4.31521 z"
       id="path3837"
       inkscape:connector-curvature="0" />
    <path
       style="fill:#aaaaaa;fill-opacity:1;stroke:none"
       d="m 314.43145,406.49387 -1.57766,0.75238 c -4.85436,4.92375 -6.7961,15.59463 -6.7961,15.59463 l -1.10435,22.68199 0.76455,16.57757 2.76698,2.76699 12.90042,2.01459 c -10.94381,-17.91936 0.68322,-52.25571 21.67469,-40.08484 l -18.82274,-15.98294 z"
       id="path3857"
       inkscape:connector-curvature="0"
       sodipodi:nodetypes="cccccccccc" />
    <path
       style="fill:#dddddd;fill-opacity:1;stroke:none"
       d="m 461.19241,475.75877 11.37306,-2.21914 -2.49652,-19.14002 -1.10957,-35.50613 1.66435,-46.87919 -3.3287,-25.24264 -16.92089,-20.80436 -7.48957,3.05129 c 0,0 0,-5.82522 -2.77392,0.83219 -2.77392,6.65738 -5.27044,18.03047 -5.27044,18.03047 0,0 -1.94174,13.31479 -1.94174,22.4687 0,9.15392 2.77392,35.50614 2.77392,35.50614 0,0 3.60609,17.19828 5.27044,22.46871 1.66435,5.27043 11.37305,31.34525 11.37305,31.34525 z"
       id="path3928"
       inkscape:connector-curvature="0" />
    <path
       style="fill:#aaaaaa;fill-opacity:1;stroke:none"
       d="m 450.37761,325.97226 -7.48784,3.04613 c 0,0 -0.005,-5.82006 -2.77912,0.83736 -2.77392,6.65737 -5.26697,18.02176 -5.26697,18.02176 0,0 -1.94174,13.32175 -1.94174,22.47566 0,9.15391 2.76698,35.49748 2.76698,35.49748 0,0 0.77302,3.6333 1.72329,7.92475 1.43086,-18.56756 4.37136,-39.45436 10.41259,-46.90521 7.46604,-9.20813 11.93792,-12.56769 20.31547,-13.79852 l -0.82524,-6.2985 -16.91742,-20.80091 z"
       id="path3930"
       inkscape:connector-curvature="0" />
    <path
       style="fill:#000000"
       d="m 458.88486,233.47256 c -13.03033,-0.0838 -21.43885,12.13744 -27.35396,26.08873 -7.51979,18.42965 -14.91396,41.50826 -17.75658,60.56245 -6.0542,34.44486 -2.88989,65.52996 4.09616,98.27529 4.63602,18.6281 20.74944,51.53898 24.78998,61.74186 0.52575,1.32765 0.10406,2.26403 -0.48155,2.41374 -4.28587,3.76017 -8.74528,6.6086 -12.76001,9.31515 -4.58753,0.35688 -6.98934,-6.547 -10.13345,-10.78881 -1.8193,-2.45627 -3.56224,-4.73463 -3.88348,-5.07276 -22.50603,-24.0229 -44.94451,-51.36559 -70.16968,-72.48765 -1.50749,-1.83709 -3.13556,-2.59386 -4.66018,-3.98057 -6.35027,-5.88519 -14.05618,-13.12796 -20.75236,-17.64558 -6.95714,-4.79455 -12.0784,-7.27493 -20.65527,-8.47084 -0.92842,-0.12109 -1.897,-0.17107 -2.91261,-0.14563 -7.1093,0.17809 -16.01506,3.65742 -21.84459,6.26211 -7.09268,3.16908 -30.78111,18.01691 -33.17951,59.63573 -15.11218,27.28337 20.29105,65.47804 17.8276,89.11381 -0.20253,4.02193 0.20761,7.58464 3.2403,9.59946 21.8581,-0.16582 30.5945,-19.52991 36.39553,-36.44403 3.96729,-10.88482 6.41,-23.65639 7.49994,-34.12611 0.19805,-1.56823 1.05627,-1.71762 6.88106,-1.1772 0.17491,-0.56543 12.53449,2.5659 12.85192,2.45145 0.12695,-0.0712 0.47662,0.0642 0.7767,0.30338 0.29969,0.23922 1.24512,0.65305 2.09949,0.92233 7.40335,2.88298 13.92508,5.43637 20.9708,8.33737 20.23016,7.37905 37.92743,19.02279 56.11632,33.21589 0.53398,0.27615 1.10095,0.74963 1.27427,1.04372 0.17332,0.29336 0.47914,0.42727 0.67961,0.30338 0.20047,-0.12392 0.37621,-0.0498 0.37621,0.15775 0,0.44112 2.07745,0.18625 3.50727,-0.42474 1.14066,-0.48745 2.85675,-2.73941 3.21601,-4.22328 -0.53851,-2.03585 -1.68527,-4.26823 -2.88834,-5.89804 -0.63645,-1.36571 -5.36023,-7.28107 -5.38833,-8.0218 -8.44787,-8.93994 -14.76301,-21.50834 -23.00963,-29.0048 -0.58676,-0.39981 -1.06796,-0.84703 -1.06796,-0.99511 -14.35734,-15.29482 -32.0408,-33.09977 -46.15278,-45.36397 -0.872,-0.74745 -1.59332,-1.57758 -1.60194,-1.84465 -0.009,-0.26691 -0.23056,-0.48039 -0.49755,-0.48544 -0.57095,-0.0105 -3.39805,-2.48519 -3.39805,-2.97327 -2.71917,-2.65583 -6.63866,-3.95948 -9.39317,-5.86165 -2.6179,-1.41328 -4.71416,-3.08003 -7.64561,-3.3495 -0.34392,-0.0291 -0.6351,-0.041 -0.8859,-0.0241 -0.75347,0.0478 -1.21254,0.3398 -2.08737,1.16504 -0.74784,0.70493 -1.3471,1.54489 -1.3471,1.85678 0,0.31188 -0.29258,0.67832 -0.64318,0.81312 -0.35107,0.13464 -0.52416,0.34986 -0.38835,0.48543 -9.1256,21.80533 -3.65486,58.51442 -5.55828,73.1915 -2.62807,7.29337 -4.05035,16.00682 -6.1286,20.41255 -4.19796,12.39251 -15.25032,28.11467 -25.37615,32.28145 -2.52003,0.97619 -7.95248,1.2047 -9.25966,0.38835 -0.42011,-0.26233 -0.8699,-0.89635 -0.99514,-1.39565 -1.20866,-4.6161 0.007,-7.4324 -0.47332,-12.02664 -3.63323,-25.63751 -22.9216,-62.09848 -16.78391,-82.2449 5.48185,-17.99361 11.74676,-46.66587 32.02658,-56.2498 24.09802,-11.03293 35.33379,-2.86484 54.73287,12.77911 0.85425,0.62951 1.85433,1.51432 2.22085,1.96597 0.36656,0.45173 1.19666,1.04229 1.84465,1.31068 0.64804,0.26846 1.1772,0.63759 1.1772,0.82524 0,0.18788 0.25573,0.3398 0.55822,0.3398 0.3026,0 0.60842,0.13018 0.6796,0.29126 0.0712,0.16117 1.25728,1.12373 2.64563,2.13592 1.38834,1.01242 2.96115,2.20007 3.49513,2.63351 26.76486,26.64895 53.39823,48.36468 73.26434,79.59923 0.57286,1.17002 1.26159,2.17468 2.81553,4.11409 0.44225,0.55196 2.44339,3.56752 2.99756,4.51455 0.24008,0.41025 0.89542,1.2229 1.45631,1.80822 0.56089,0.58548 1.01941,1.25246 1.01941,1.48062 0,0.22788 0.67918,0.52357 1.50485,0.6553 1.56889,0.25091 3.82892,-0.5454 4.44173,-1.56551 2.08239,-1.67179 4.43789,-2.8757 6.58979,-4.40535 3.11206,-3.39533 8.0648,-3.39088 11.29851,-5.48542 0.67673,-0.7904 0.68046,-0.91735 0.0364,-3.00969 -0.36978,-1.2012 -0.88415,-2.44648 -1.14077,-2.76699 -1.28913,-1.90268 -1.85386,-3.46384 -3.14319,-5.07276 -0.54777,-0.51467 -1.27433,-1.5429 -1.62621,-2.2937 -9.32037,-18.21089 -17.29772,-39.7436 -22.04631,-58.23585 -6.71092,-27.71055 -10.3299,-59.23487 -5.10396,-91.43714 3.8456,-22.98695 10.42999,-43.85493 21.72088,-66.04452 4.27221,-8.23349 9.1198,-14.85382 14.84683,-17.78903 7.15187,-2.11708 10.7536,-1.38019 16.23782,0.65537 5.45488,2.84586 8.36551,9.29842 11.10433,14.5873 1.56232,3.08729 2.76856,6.20498 3.74999,9.32035 2.21187,5.3803 3.60583,10.67581 5.06066,16.31063 0.0192,0.10695 0.15254,0.45635 0.29126,0.7767 0.23367,0.53965 1.2966,5.01447 1.61407,6.79609 7.07917,25.59725 8.16703,54.70598 5.80094,80.77644 -1.17456,14.95195 -4.59385,31.72019 -9.00483,45.63092 -0.37406,1.17491 -0.68796,2.31079 -0.70388,2.52426 -0.0159,0.21363 -0.23514,1.08742 -0.48544,1.94175 -0.58318,1.99071 -2.06383,8.30564 -2.18445,9.32035 -0.0794,0.66808 -0.53874,2.25945 -1.29854,4.46601 -0.11029,0.3205 -0.16439,0.80104 -0.12136,1.06796 0.0431,0.26706 -0.12334,0.48543 -0.36408,0.48543 -0.24089,0 -0.35709,0.21852 -0.26699,0.48544 0.0901,0.26706 -0.0747,1.35922 -0.36407,2.42717 -0.51488,1.90042 -0.64251,3.07658 -1.12864,10.77667 -0.14051,2.22531 -0.39076,3.70138 -0.6068,3.56799 -0.21289,-0.13158 -0.27596,0.15471 -0.14563,0.67961 0.12377,0.49844 0.55501,2.64558 0.95874,4.78149 1.11607,5.90414 1.74931,8.13675 2.66989,9.42961 0.46175,0.64846 0.84485,1.4116 0.84951,1.69902 0.005,0.28742 0.32561,0.93662 0.71602,1.44415 0.60839,0.79118 0.93491,0.89367 2.233,0.67961 0.83301,-0.13717 3.3398,-0.35981 5.58251,-0.48544 2.24271,-0.12555 5.9126,-0.55999 8.15531,-0.97087 4.76741,-0.87335 9.21042,-1.14477 18.83489,-1.14073 3.84465,0 6.99027,0.0179 6.99027,0.0365 12.41394,0.94951 22.44461,4.85876 33.39795,8.34949 0.73084,0.13786 6.37606,2.86885 6.7961,3.28881 0.10679,0.10695 1.06796,0.66566 2.13591,1.23789 2.21945,1.18889 2.64644,2.04932 1.18932,2.41503 -1.5814,1.30477 -3.72093,1.83662 -5.65532,2.96115 -0.1068,0.13289 -1.06796,0.66998 -2.13592,1.20143 -25.66531,16.22243 -54.39803,28.36065 -77.77887,43.60425 -9.14638,11.10729 6.46254,27.53013 4.74513,34.23535 -2.49736,1.9501 -4.6337,3.61109 -7.41503,4.81792 -2.90584,-1.21547 -3.68065,-4.00203 -5.37619,-6.15291 -3.78042,-5.03475 -6.76023,-10.73512 -12.42715,-14.23537 -4.36577,-2.53665 -10.43495,-2.65436 -16.89315,-0.3398 -2.02912,0.72722 -4.03882,1.36853 -4.466,1.43203 -19.78744,9.57944 -40.0514,21.79624 -60.1333,30.95862 -0.32823,0 -0.70539,0.17483 -0.83739,0.38835 -0.36963,0.59836 -2.74873,0.46873 -3.28881,-0.18202 -1.23984,-3.95778 2.46489,-19.37303 4.56309,-21.90529 3.38092,-7.90778 8.55159,-15.35281 12.31791,-22.30572 1.1591,-2.22989 1.74174,-3.17855 1.74756,-2.86406 5.48483,-13.67017 -16.13552,19.87446 -18.79846,25.71591 -0.35511,1.06602 -0.98936,2.40668 -1.40776,2.98543 -1.59736,3.14737 -2.59689,6.12371 -4.16263,9.32036 -0.55907,1.13017 -0.9718,2.26982 -0.92233,2.53638 0.0495,0.26738 -0.0542,0.48543 -0.23056,0.48543 -0.29635,0 -0.89002,1.73569 -1.50485,4.40535 -0.13926,0.60462 -0.50264,1.19619 -0.80097,1.31067 -0.41549,0.15946 -0.42644,0.32921 -0.085,0.74027 0.29421,0.35461 0.3068,0.53398 0.0365,0.53398 -0.24773,0 -0.35068,0.6515 -0.25484,1.65048 0.20121,2.09759 -0.43747,4.07312 -1.40776,4.38108 -0.41398,0.13141 -0.75243,0.38403 -0.75243,0.55825 0,0.33503 -4.48495,3.1189 -5.02425,3.1189 -7.83951,2.35246 -12.23278,7.93446 -18.07035,12.2694 -1.65537,1.22259 -2.98671,4.20255 -3.91987,5.98297 -3.69378,12.94151 17.02926,34.58688 21.92952,46.28629 0.24043,0.6395 0.18683,0.99227 -0.19417,1.21359 -0.29437,0.1706 -0.5461,0.48928 -0.5461,0.70385 0,0.21495 -0.51316,0.94345 -1.15293,1.62624 -15.00313,22.13321 -12.6553,39.6391 -8.38323,51.9582 1.11875,3.22609 7.46925,3.3504 8.57488,5.85505 2.07262,4.69513 -1.46442,10.851 -2.23669,12.90928 -10.81278,28.86305 -17.48204,58.20288 -13.45246,79.82297 -0.93491,9.23084 8.93014,17.65835 15.87373,22.03876 50.99102,24.21798 67.39151,32.62797 113.96808,73.50683 0.49903,0 1.01114,0.28109 1.14077,0.61895 0.35856,0.93433 0.28212,2.5598 -0.10922,2.31797 -4.45377,5.58789 -3.04147,18.05764 0.0971,23.48292 0.38271,0.64792 1.6331,2.13923 2.77911,3.31309 1.14606,1.17386 2.1831,2.45304 2.30582,2.8398 10.55536,8.68426 21.46208,18.9082 32.63339,19.67227 4.55393,0.30318 6.47113,0.51244 6.67474,0.71601 0.0994,0.0994 0.7418,0.003 1.41989,-0.20631 1.4381,-0.44295 5.22333,-0.76174 8.81066,-0.75242 6.50984,0.0168 9.73076,0.15837 9.90288,0.43689 0.10326,0.16707 0.83621,0.13548 1.63834,-0.0607 1.14621,-0.28027 8.18683,-0.60182 17.5849,-0.80097 95.66081,-0.42909 145.11112,-2.48283 232.02594,-3.85923 47.0731,-2.9235 86.54945,-3.85509 131.27385,-5.59462 7.00161,-0.27375 18.76973,-1.23976 22.71838,-1.86892 2.02912,-0.3233 4.56309,-0.67779 5.63105,-0.7767 1.06795,-0.0989 2.79876,-0.37563 3.84707,-0.61893 38.59061,-6.23533 76.96591,-19.57277 114.28361,-36.20134 0.033,0.004 0.057,-0.004 0.073,-0.0241 0,-0.004 0,-0.009 0,-0.012 14.1855,-6.32219 27.6822,-13.19522 38.5921,-20.33974 29.0211,-19.00495 74.1323,-54.83349 118.4532,-124.84554 2.9468,-4.48006 3.7096,-7.07741 8.4063,-8.66513 1.6175,-0.54315 3.2936,-0.9821 4.8756,-1.9379 1.2709,-0.79394 2.3079,-0.92536 4.5145,-0.55825 1.8373,0.30575 3.4459,0.35212 10.2427,0.27911 0.8541,-0.009 1.6406,0.0256 1.7476,0.0729 0.1065,0.0468 1.1746,0.12916 2.3665,0.18202 1.1918,0.0529 2.5095,0.19643 2.9247,0.32765 0.4147,0.13192 2.1431,0.33347 3.8471,0.43689 1.704,0.10408 4.3176,0.31134 5.8131,0.4612 21.5515,0.96936 49.442,-5.53039 62.6939,-19.84219 5.651,-12.12209 0.3938,-18.42417 -10.0363,-19.05333 -1.2743,-0.0741 -2.4617,-0.20633 -2.6335,-0.30342 -0.1713,-0.0967 -2.1094,-0.19503 -4.3083,-0.21841 -2.1989,-0.0241 -4.6455,-0.21941 -5.4368,-0.42477 -5.688,-1.13422 -12.1249,-1.91476 -18.8592,-4.47812 -7.8754,-3.29158 -16.6849,-6.91016 -23.4465,-11.18933 -4.1507,-2.6657 -10.2095,-5.57532 -14.2233,-7.02665 -3.0275,-1.29848 -7.9646,-2.12939 -10.546,-1.78396 -1.8718,0.2501 -3.4934,-0.67856 -3.7743,-2.14807 -0.2205,-6.89003 -8.2154,-14.62541 -12.1359,-18.96837 -8.3731,-12.39848 -19.9256,-28.45194 -22.9004,-41.33485 -0.8452,-1.78875 -1.7841,-3.42769 -3.3495,-4.72084 -1.4844,-1.61333 -3.934,-1.45205 -6.1893,-1.21359 -2.0752,0.54022 -3.5502,2.01991 -4.466,3.76212 -1.3493,2.12506 -2.7333,4.10249 -3.7864,6.03156 -9.5237,20.02898 -8.6711,38.94698 -16.1529,57.5362 -1.2907,2.86861 -4.1274,6.83784 -7.6334,9.10191 -0.4222,0.27204 -2.0874,1.1438 -3.6893,1.92959 -1.602,0.78656 -2.9569,1.52186 -3.0097,1.63836 -47.0455,3.02019 -88.9483,-58.55806 -116.4075,-74.07743 -0.8543,-0.42675 -1.8699,-1.13592 -2.2694,-1.57766 -0.3995,-0.44175 -1.3606,-1.13511 -2.1359,-1.54124 -50.24964,-38.51531 -105.79613,-69.40056 -168.0213,-82.40269 -6.89559,-1.766 -13.18476,-2.87246 -20.19411,-3.2888 -31.17832,-1.82974 -82.90815,-7.34666 -108.15499,15.3276 -4.60795,4.4523 -4.85035,4.64119 -8.00968,5.82522 -0.67173,0.25189 -1.60374,0.81076 -2.07524,1.25002 -0.48796,0.45464 -1.60234,0.88438 -2.58494,0.99514 -1.49475,0.16851 -1.96099,0.0252 -3.483,-1.06796 -1.981,-1.42267 -4.11111,-1.77712 -9.93929,-1.66263 -2.70717,0.0535 -3.74601,0.25499 -5.2427,1.0073 -3.12993,1.57323 -3.44092,1.59778 -4.75727,0.3398 -0.65063,-0.62174 -1.18931,-1.26543 -1.18931,-1.41988 -3.06559,-2.96522 -4.48244,-3.24035 -7.48784,-4.16263 -6.31219,-2.3969 -13.80902,-1.7073 -18.14315,0.4369 -0.82396,0.4092 -1.55339,-0.48843 -1.55339,-1.92963 0,-0.66202 -0.15249,-1.94454 -0.35194,-2.83976 -0.19946,-0.8956 -0.57839,-3.02414 -0.83738,-4.73303 -0.25899,-1.70846 -0.56844,-3.28123 -0.69174,-3.49513 -0.1233,-0.21352 -0.23457,-0.5628 -0.24272,-0.7767 -0.008,-0.21351 -0.30728,-0.92788 -0.66747,-1.58978 -0.36016,-0.6619 -0.87043,-2.05996 -1.12864,-3.10679 -0.42699,-1.73098 -1.00804,-3.197 -2.8398,-7.14805 -1.74081,-3.75428 -5.70454,-8.01054 -9.57521,-10.27908 -1.28815,-0.75494 -2.4157,-1.37137 -2.51213,-1.37137 -0.0964,0 -1.0411,-0.41149 -2.09951,-0.92233 -1.90212,-0.91739 -6.68696,-2.49816 -8.56793,-2.82764 -0.53398,-0.0936 -1.58252,-0.36143 -2.33009,-0.59464 -0.74757,-0.23394 -1.79611,-0.56178 -2.33009,-0.72815 -7.49125,-2.30551 -15.35752,-3.17222 -23.22808,-4.27183 -1.3346,-0.0365 -3.33319,-1.2031 -3.49513,-2.03883 -3.40583,-6.20433 -5.58252,-11.48292 -9.0291,-17.39074 -4.5007,-9.02799 -9.32689,-15.60818 -23.93196,-12.35433 -1.7379,0.88602 -2.00331,0.90792 -3.45873,0.19418 -1.16994,-0.57371 -7.63285,-1.87413 -9.6723,-1.94175 -0.64077,-0.0213 -1.25242,-0.12112 -1.35922,-0.2306 -5.9909,-1.79377 -11.52598,-4.54309 -17.47567,-5.84945 -1.17475,-0.25301 -3.53397,-0.86823 -5.2427,-1.37138 -3.25389,-0.95809 -4.5441,-1.23902 -6.79609,-1.46846 -0.74757,-0.0761 -1.62136,-0.24571 -1.94174,-0.37619 -4.09817,-1.66901 -31.87621,-1.50446 -35.07271,0.20633 -0.41902,0.22423 -2.52562,0.47503 -4.68445,0.55821 -2.15883,0.0834 -4.46655,0.24318 -5.12134,0.35196 -1.35044,0.22431 -2.39337,-0.67196 -3.3131,-2.82768 -0.29615,-0.69402 -0.63444,-1.26213 -0.75242,-1.26213 -0.11798,0 -0.19204,-0.48047 -0.1699,-1.06796 0.022,-0.58734 -0.12833,-1.50485 -0.32767,-2.03883 -0.40614,-1.08788 -0.80093,-9.90568 -0.75243,-16.69897 0.0494,-6.92297 1.286,-16.12737 2.46359,-18.3373 0.19763,-0.37088 0.35194,-0.99612 0.35194,-1.38349 0,-0.38734 0.21699,-0.90874 0.4733,-1.16505 0.32023,-0.32011 0.33238,-0.47332 0.0364,-0.47332 -0.26831,0 -0.16645,-0.54908 0.26698,-1.4563 0.76474,-1.60039 1.36689,-3.90123 1.22573,-4.66018 -0.0496,-0.26692 0.0926,-0.48544 0.31553,-0.48544 0.22295,0 0.40049,-0.42543 0.40049,-0.94656 0,-0.52147 0.17475,-1.05724 0.38834,-1.18935 0.2136,-0.13185 0.38835,-0.50847 0.38835,-0.83736 0,-0.55235 0.38389,-1.5577 1.74757,-4.59952 3.69299,-12.56348 7.14401,-28.65872 8.50725,-40.77657 4.05117,-20.45613 0.7307,-51.8659 -5.24272,-71.2619 -0.0348,-0.1068 -0.11151,-0.36889 -0.18204,-0.58253 -0.0705,-0.21347 -0.3105,-1.26213 -0.52184,-2.33008 -2.77481,-9.01062 -4.53443,-18.90095 -7.45143,-27.22077 -0.66054,-1.87141 -1.26089,-3.68213 -1.33495,-4.01696 -0.27526,-1.24458 -1.80057,-5.29338 -2.28154,-6.04371 -0.27383,-0.42703 -0.8072,-1.8252 -1.17718,-3.10678 -5.18998,-10.2317 -10.88145,-15.5297 -20.21839,-18.51932 -0.64077,-0.20544 -2.56309,-0.45041 -4.27183,-0.54614 z m -15.37616,91.31039 c -5.99853,1.74648 -7.36751,9.6115 -8.66502,14.40527 -3.57206,31.47264 -3.99184,59.75371 2.8762,86.35894 2.26638,6.78635 5.2362,18.19547 10.48205,29.52894 4.46393,9.64415 8.80156,21.28431 13.97177,24.29373 0.75945,-0.12575 2.07038,-0.32773 2.92475,-0.44901 0.85436,-0.12144 1.91092,-0.55561 2.34222,-0.95876 0.4313,-0.40318 1.87629,-1.11992 3.21601,-1.60193 3.25044,-1.16955 3.9563,-1.88388 3.9563,-3.96846 0,-0.917 -0.13107,-1.79366 -0.29126,-1.95385 -0.1602,-0.1602 -0.29103,-0.40369 -0.29126,-0.5461 -5.936,-35.69659 -2.27636,-77.05092 -2.22095,-103.98025 0.29912,-9.71361 -4.11722,-22.26588 -8.22809,-30.31547 -1.71595,-3.59304 -4.54583,-5.6182 -6.8325,-7.9126 -3.52935,-4.17315 -8.76987,-3.70484 -13.24022,-2.90045 z m 4.11406,3.16748 c 2.04804,-0.0194 2.61157,0.14649 4.10193,1.18928 11.24099,9.57557 15.69729,24.08414 16.52907,37.76687 -3.32252,35.32594 0.50205,67.37721 1.66262,98.44628 0.0427,1.28159 0.25419,2.90143 0.4733,3.59222 0.21911,0.69087 0.29097,1.59491 0.15777,2.0146 -0.22245,0.70093 -1.55221,1.45727 -2.24514,1.27425 -0.1602,-0.0423 -0.29126,0.10842 -0.29126,0.3398 0,0.23138 -0.21093,0.35449 -0.4733,0.26699 -0.26241,-0.0875 -0.79612,0.13126 -1.18932,0.49759 -0.39316,0.36617 -1.18708,0.77033 -1.7597,0.8859 -0.57258,0.11557 -1.33332,0.31965 -1.69903,0.46116 -2.80155,-1.11957 -2.88755,-3.58411 -4.36891,-5.94658 -19.69308,-35.35424 -26.72537,-86.08617 -22.20869,-121.92924 1.78746,-8.18447 2.77087,-18.74393 11.31064,-18.85912 z m -133.0578,79.70848 c 4.22391,0.004 9.43302,4.2175 11.89317,6.43198 0.21701,0.26497 0.97759,0.81153 1.69902,1.21359 1.77041,0.98745 4.40543,3.35245 8.58005,7.71842 14.70006,12.35797 28.79983,28.25751 39.08966,38.95622 -0.10753,0.17395 0.49247,1.04719 1.33495,1.94175 10.02253,11.01857 17.90079,21.4375 27.06304,31.85667 1.14992,2.76525 8.03275,11.3394 5.70386,13.82279 -0.73712,0.73693 -1.10087,0.7619 -1.63834,0.12132 -0.22412,-0.2666 -1.07658,-0.83468 -1.8932,-1.26213 -0.81658,-0.42703 -1.80732,-1.16959 -2.1966,-1.65048 -0.38932,-0.48051 -0.91943,-0.87379 -1.17718,-0.87379 -15.01033,-12.98246 -36.81903,-22.90038 -51.90518,-29.92704 -0.1068,-0.12327 -1.15534,-0.53356 -2.33009,-0.91022 -1.17476,-0.37669 -2.39805,-0.91685 -2.71844,-1.20147 -9.24801,-4.50507 -17.71253,-6.2458 -25.04843,-8.54366 -3.982,-0.31887 -6.95644,-1.84201 -11.00726,-1.7718 -1.31934,0.0415 -3.16255,-1.17378 -3.19176,-2.09953 0.21833,-16.03878 -3.61505,-43.50883 5.52185,-53.34934 0.69099,-0.3271 1.43863,-0.47406 2.22088,-0.47328 z m 273.82191,71.58956 c 1.05503,0.005 1.60046,0.13887 2.03883,0.41262 0.49153,0.30691 1.75365,0.66788 2.80339,0.80096 1.55829,0.1976 2.14887,0.49903 3.21601,1.68687 4.70463,8.1401 10.69666,20.0571 13.70141,28.65284 5.0689,9.80906 18.06847,33.41529 17.2815,40.57024 -0.30843,1.90974 -1.5806,4.16838 -2.5364,4.47816 -22.62252,18.72291 -51.43309,30.21023 -75.90995,41.75959 -6.36289,3.0403 -7.62019,3.53366 -9.38104,3.67716 -0.92349,0.0752 -1.86139,0.2487 -2.08737,0.38835 -0.49037,0.30306 -2.40745,0.54687 -6.04367,0.75242 -5.4799,0.68443 -11.57025,0.66707 -15.66743,-3.1189 -0.86621,-0.82113 -1.57766,-1.65689 -1.57766,-1.85681 -1.94921,-2.47353 -3.59057,-5.20689 -5.38833,-8.02184 -3.33952,-3.64418 -5.1316,-10.50284 -8.56794,-13.4951 -1.3598,-1.16714 -1.69737,-1.27176 -4.38105,-1.32279 -2.5982,-0.0494 -3.13339,0.0832 -5.02425,1.16504 -1.16392,0.6659 -2.4471,1.55635 -2.8398,1.99029 -1.18623,1.42271 -3.33131,3.41338 -3.54368,4.99998 0.81032,4.32383 2.80852,8.59353 4.5995,12.16015 0.6799,4.09669 4.67973,11.9475 5.15775,15.37615 0.13596,1.01871 0.43083,2.3245 0.65534,2.91261 0.2325,0.6099 0.298,2.0304 0.15776,3.30096 -0.13533,1.22738 -0.27504,2.49545 -0.30339,2.81553 -0.0285,0.32046 -0.34965,1.01941 -0.71602,1.55339 -0.36641,0.53398 -0.95982,1.61463 -1.32281,2.39079 -0.56579,1.20982 -1.24648,1.69591 -4.80581,3.45874 -28.1509,16.00751 -56.73188,35.6859 -82.76672,49.5629 -5.81957,3.26584 -11.96776,5.82213 -18.87132,4.47812 -10.41119,-4.66569 -15.89905,-19.81093 -22.73053,-27.56061 -7.56731,-12.75367 -19.68886,-27.17381 -20.61888,-39.70861 0.70901,-7.68366 8.11574,-11.33697 12.05095,-15.04849 3.47211,-3.43203 9.03819,-5.00768 12.57278,-7.18445 0.57029,-0.37324 1.20189,-0.67961 1.40776,-0.67961 0.20586,0 0.60365,-0.21805 0.8859,-0.48543 10.29795,-4.67797 31.42227,-16.83944 52.80162,-26.5485 8.30102,-3.76973 16.22405,-7.83609 24.18844,-9.95639 4.41728,-1.20531 7.7445,-2.49809 11.75963,-2.28155 1.91114,0.0946 3.97643,1.14749 5.93444,3.0097 4.40544,4.06248 8.73638,9.41472 11.24997,14.10194 2.43512,5.13774 6.88601,6.70972 11.05579,4.49023 3.06262,-1.17112 5.04981,-2.34571 6.0194,-4.76938 0.85177,-3.19761 0.60454,-5.96136 -0.69175,-8.95628 -1.85497,-3.5773 -3.54906,-6.44174 -4.64804,-10.15775 -4.00592,-9.86518 -2.72489,-15.2826 6.38347,-20.58246 0.19755,0 1.31796,-0.63142 2.48786,-1.40776 23.47744,-14.28242 51.57437,-28.22428 73.30073,-40.83723 2.40512,-1.19444 4.60603,-2.20337 4.89076,-2.24512 0.28474,-0.0419 1.20876,-0.51192 2.05097,-1.04373 0.84225,-0.53145 2.34354,-1.34333 3.33736,-1.79611 0.99387,-0.45269 1.90054,-0.96842 2.01456,-1.15289 0.11398,-0.18446 1.85953,-0.45825 3.88348,-0.60679 1.08309,-0.0795 1.90339,-0.12427 2.5364,-0.12136 z m -272.45057,4.80581 c -3.4624,-0.0473 -6.44379,0.53813 -8.31306,2.13591 0,0.20955 -0.14629,0.28202 -0.32769,0.1699 -0.1814,-0.11211 -0.71914,0.25872 -1.20147,0.81313 l -0.87378,1.00726 1.20147,-0.18202 c 28.97986,-0.45755 69.7327,18.94456 90.76426,34.4416 2.63294,2.04473 4.29526,5.47683 6.55338,3.6893 0.7311,-0.6064 0.78998,-3.10678 0.0728,-3.10678 -0.28109,0 -1.04934,-0.61134 -1.71116,-1.35922 -23.33596,-16.1744 -60.8913,-35.03538 -86.16477,-37.60908 z m 161.63782,20.42467 c -0.92916,0.92947 -2.07281,3.15607 -1.89319,3.68931 0.19382,0.57584 1.26213,0.65817 1.26213,0.0971 0,-0.21351 0.26396,-0.38834 0.58252,-0.38834 0.3186,0 0.79918,-0.36373 1.06796,-0.81309 0.52403,-0.876 5.34722,-3.44717 6.80823,-3.62861 0.48578,-0.0605 0.97805,0.0457 1.09223,0.23056 0.11421,0.18478 1.13211,0.32765 2.25727,0.32765 l 2.03883,0 -0.1699,-1.15289 c -0.0937,-0.6386 -0.32004,-1.0638 -0.50971,-0.9466 -0.18967,0.11725 -0.35194,0.0424 -0.35194,-0.15774 0,-0.20035 -0.48058,-0.5579 -1.06796,-0.78885 -6.22095,-1.91367 -8.03457,0.40442 -11.11647,3.53152 z m 173.15478,16.24997 c 3.10186,1.38104 7.17202,4.18977 9.99997,6.90529 1.44042,1.38365 2.54407,2.58943 2.45145,2.68205 -0.18027,0.18027 -0.0974,0.31126 1.71116,2.47572 0.64819,0.77577 1.17718,1.63308 1.17718,1.90536 0,0.27161 0.44924,1.08026 0.99514,1.79611 1.28796,1.68846 2.09359,4.45893 2.13592,7.34219 -0.03,11.96901 -3.51667,22.52063 -7.09949,32.57271 -0.40637,1.07487 -0.7748,2.12869 -0.82524,2.3422 -0.0504,0.21391 -0.46169,1.21289 -0.9102,2.20877 -0.4485,0.99549 -0.93883,2.21852 -1.09222,2.71844 -0.15336,0.49949 -0.4409,1.09642 -0.63107,1.33491 -0.44435,0.5579 -0.65796,5.67532 -0.27913,6.69901 0.36897,0.99774 3.24908,1.95723 3.90776,1.29855 0.24435,-0.24434 0.48637,-1.63568 0.53398,-3.08251 0.0476,-1.44687 0.27409,-3.24477 0.5097,-3.99272 0.23562,-0.7475 0.43107,-1.44645 0.4369,-1.5534 0.0586,-1.08904 1.12537,-3.92278 2.5364,-6.73539 0.94768,-1.88901 1.72329,-3.64158 1.72329,-3.90776 0,-0.26621 0.52812,-1.42974 1.16505,-2.58492 0.63689,-1.15592 1.16116,-2.32213 1.16504,-2.58496 1.5504,-2.91391 2.69869,-5.53807 4.46601,-8.17959 0.98914,-1.42483 4.57732,-3.13692 7.65774,-3.61649 1.86415,-0.29021 3.20498,-0.2668 4.84222,0.0607 1.24539,0.24866 2.5194,0.49491 2.83979,0.54609 1.50699,0.24074 4.85371,1.4287 5.95872,2.1238 0.6758,0.42454 2.00747,1.59002 2.94902,2.58492 3.61044,6.22833 3.10088,9.17166 3.59222,16.2742 -0.59861,3.44056 -2.33183,6.29077 -2.68203,9.2597 -0.18819,1.66974 -0.13547,1.79464 0.83738,2.03883 1.13828,0.28567 2.54853,-0.66772 2.54853,-1.71114 0,-0.63285 1.06204,-4.43859 1.5898,-5.7039 0.17822,-0.42703 0.41693,-1.43977 0.53398,-2.25724 0.7802,-4.125 1.94057,-7.12354 1.25,-12.73056 -0.3652,-0.26571 0.51005,-1.90535 1.01941,-1.90535 0.17748,0 0.58091,-0.24109 0.88592,-0.5461 0.75817,-0.75813 3.93381,-1.10799 8.71357,-0.9466 8.40122,-0.1475 13.86982,10.51267 14.07762,17.12372 -0.004,2.51521 0.10598,3.01797 0.63107,3.02185 0.34559,0 1.12362,0.26342 1.73543,0.58252 1.39506,0.72757 1.29104,0.7452 1.97815,-0.30341 0.50341,-0.76789 0.50401,-1.12816 0.0364,-2.68202 -0.68855,-4.91064 -1.27586,-8.33489 -1.29852,-13.09463 -0.0227,-2.52601 0.28261,-2.97382 4.80581,-6.89318 11.72602,-7.99983 21.61402,-16.21795 34.33242,-17.60915 2.24271,-0.2379 4.60192,-0.58299 5.2427,-0.7767 0.64077,-0.19367 1.86407,-0.44147 2.71844,-0.54613 30.2223,-4.20834 52.70998,-0.91701 81.29828,3.03412 56.77776,13.64533 108.47152,34.53357 172.62073,82.13566 1.1303,0.42948 3.3738,2.63098 3.3738,3.31308 0,0.27903 0.3058,0.61518 0.6796,0.74027 0.9488,0.31871 2.1726,1.12885 2.5243,1.67479 30.6318,20.24362 63.5774,75.01809 109.138,75.46088 11.5776,-3.53583 18.6588,-9.40067 23.4101,-19.22324 2.0376,-16.50208 7.4222,-33.24486 11.4806,-48.95611 1.5265,-4.1147 4.4459,-7.63236 6.5048,-9.74514 2.7486,-2.81245 2.9388,-2.93129 4.3446,-2.74271 1.3852,0.18579 3.4316,1.32373 3.4588,1.91747 8.2131,13.01573 17.5289,26.3525 24.8664,38.72574 0,0.19899 0.4534,0.71957 1.0194,1.16505 1.9601,3.01276 3.167,4.26445 4.5267,6.95384 2.8442,4.91501 4.9866,9.14564 4.9999,13.17957 0,1.54131 0.1657,2.91145 0.3641,3.03397 0.1979,0.12252 -25.9291,13.13316 -14.4794,9.99752 -0.2596,0.42019 14.4906,-8.99022 19.8798,-8.99022 2.2428,0 4.2904,0.17235 4.551,0.38835 0.2603,0.21561 0.9596,0.45619 1.5534,0.52182 15.2982,4.64715 28.454,13.68196 42.7304,17.33004 2.8291,1.32575 5.3577,1.46295 8.4466,2.28155 0.4272,0.18388 1.7379,0.46485 2.9126,0.61891 2.7159,0.35669 2.7738,0.3697 6.0194,1.14081 1.4952,0.35491 3.0996,0.69965 3.568,0.76454 0.4683,0.0648 1.0072,0.21961 1.2014,0.3398 0.4024,0.24847 3.4554,0.54734 8.1432,0.80097 2.0231,0.10944 3.5206,0.39511 4.0655,0.7767 25.8693,17.67415 -33.032,32.07325 -41.8324,32.56048 -1.9223,0.0805 -3.6699,0.0245 -3.8834,-0.13352 -12.2493,-1.67345 -26.0399,-2.47446 -38.7272,-3.69715 -0.8785,0.0904 -22.7346,-1.20842 -23.5857,-0.96411 -0.7894,0.2266 -7.1331,1.21324 -4.1872,1.81537 4.8943,1.00039 17.7633,1.01802 17.8305,2.63599 0.1034,2.4871 -5.0813,7.27975 -6.3703,9.30319 -36.8084,56.59439 -74.0093,92.07446 -119.2555,123.86737 -46.4099,25.49931 -98.6447,47.38485 -148.76176,56.45613 -10.91383,0.77452 -21.9017,2.20038 -31.89311,2.65776 -44.19683,2.68741 -92.94434,6.61538 -132.02627,6.11648 -8.58173,-0.0566 -11.31594,0.66246 -21.17712,-0.097 -92.4564,3.80503 -154.2303,1.30848 -245.67881,5.48542 -0.1633,0.26423 -0.34606,0.24335 -0.53398,-0.0607 -0.1819,-0.29433 -1.50009,-0.46913 -3.6529,-0.48544 -10.73472,0.57534 -20.5351,-7.08101 -28.81059,-11.22567 -0.94489,-0.23794 -1.71116,-0.55769 -1.71116,-0.71602 -13.82061,-10.57919 -12.6737,-22.90091 -9.17991,-28.76898 0.36992,-1.012 1.595,-2.26878 2.74791,-1.8984 10.57954,6.7097 42.48343,-0.0153 16.34691,-2.00026 -10.31768,-0.77782 -16.9173,-5.99691 -18.29539,-7.2192 -36.86443,-32.69648 -93.93316,-60.80691 -121.0876,-74.05988 -2.49972,-1.29269 -4.4982,-3.59001 -6.23233,-5.71528 -17.09183,-24.28536 -4.83416,-57.24009 -0.42777,-75.68946 1.06944,-2.84718 2.41728,-5.12449 3.62861,-7.52425 4.79789,-6.41633 5.05397,-19.73318 8.00969,-17.90041 15.29851,7.98254 17.68965,14.84011 27.18845,16.77579 -9.94435,1.66302 -8.43112,15.6224 -3.6448,20.29931 8.05392,13.1892 26.06487,19.90817 37.86395,21.55333 0.83573,0.11856 3.35193,0.3106 5.59464,0.42478 6.02371,0.3066 9.95191,0.57976 13.09462,0.89805 2.87351,0.17907 5.78394,-0.63149 4.02911,-2.31793 -1.13658,-1.0866 -1.40341,-1.16753 -3.03397,-0.94664 -0.98535,0.13406 -1.90543,0.30633 -2.03883,0.38835 -0.13343,0.0827 -0.92927,-0.0148 -1.77183,-0.21841 -0.84256,-0.20404 -2.06553,-0.45002 -2.70631,-0.54613 -0.64077,-0.0961 -2.47572,-0.41736 -4.07765,-0.716 -1.60194,-0.29903 -4.88276,-0.57569 -7.29367,-0.61895 -10.90135,0.0996 -20.30704,-6.54134 -28.84699,-11.94171 -6.89875,-4.59672 -13.49462,-17.40041 -9.95144,-23.26447 0.83289,-0.96842 1.10931,-1.03875 3.59222,-0.98302 5.07393,-0.49111 6.49475,-0.0623 5.43689,-3.9563 -13.17259,-2.40104 -20.92076,-15.26877 -31.09215,-20.19423 -1.91366,-1.38823 -3.09292,-1.90516 -5.65532,-3.05832 -21.26001,-10.4287 -6.08981,-57.97624 3.88348,-46.77169 7.99536,5.0448 8.65097,19.3625 18.47082,19.30817 2.1998,-0.0538 9.33344,-0.71658 11.06792,-1.03153 6.58663,-1.16455 11.24999,-4.59591 16.01938,-7.45143 2.18932,-1.30524 4.33009,-2.69615 4.75727,-3.09463 25.19263,-17.2962 49.02774,-30.48827 69.25948,-42.9368 0.0712,-0.16004 0.30515,-0.29126 0.52185,-0.29126 1.13493,0 7.46805,-5.12917 9.31673,-7.30042 1.11607,-1.63795 2.17622,-3.47489 2.70993,-5.21166 0.65114,-1.20201 0.55093,-4.40837 -0.20631,-6.6383 -0.34365,-1.01239 -0.61893,-2.32062 -0.61893,-2.9005 -1.63091,-8.26153 -5.94232,-14.76484 -8.19172,-22.02665 -1.54971,-4.98274 -1.4873,-6.85982 0.31553,-8.5315 1.92846,-1.5894 8.67103,-0.18703 9.32036,1.77184 5.58467,9.92174 10.62667,18.13178 18.65285,25.52178 1.25619,1.17312 0.47763,1.10236 9.9757,0.83735 0.41735,-0.0117 0.94162,-0.17048 1.16504,-0.35192 3.3599,-1.29623 10.94606,-0.55879 12.39074,2.45141 2.25908,11.38983 -17.80574,13.07856 -25.44895,22.79123 -3.51071,4.53773 -6.91215,7.26623 -9.62375,6.79609 -1.99114,-0.34524 -2.49361,-2.05117 -3.09465,-4.19905 -0.28393,-1.01448 -0.66239,-1.84465 -0.83738,-1.84465 -2.47661,2.54158 -5.86764,7.80156 -3.68931,10.58249 10.88836,3.37055 16.93682,-5.20173 22.97323,-11.54121 0.0978,-0.28652 0.39449,-0.61044 0.74029,-0.78885 0.005,-0.004 0.008,-0.01 0.0121,-0.012 0.40869,-0.4327 0.82091,-0.85495 1.22573,-1.27425 0.58578,-1.05386 1.6584,-2.01949 2.79125,-2.62135 0.01,-0.008 0.0269,-0.005 0.0364,-0.012 8.89072,-4.87711 22.74005,-6.5326 21.4441,-20.25481 -1.74967,-1.5645 -5.31525,-2.50092 -2.58494,-3.98057 0.61328,-0.32007 1.44555,-0.86322 1.84466,-1.21358 0.39914,-0.34991 1.54896,-0.85507 2.54853,-1.12862 25.10762,-10.86156 47.11009,-22.96504 69.96337,-35.27899 2.02912,-1.09398 5.13153,-2.68322 6.88104,-3.51937 2.44687,-1.17033 3.45626,-1.90035 4.39319,-3.19176 5.52419,-12.19231 -9.04811,-26.30375 -10.88588,-37.35425 0,-0.56609 -0.13624,-1.03161 -0.31554,-1.03161 -0.51204,0 -1.24953,-1.88084 -0.83737,-2.13591 0.19817,-0.12241 1.88585,-0.29705 3.76212,-0.40043 9.82618,-1.78639 18.9273,-0.64277 27.8761,3.34941 z m -203.17895,9.68443 c -0.67732,-0.004 -1.27745,1.28085 -1.03155,2.22085 0.29239,1.1184 -0.54522,6.18227 -1.27427,7.71842 -0.33215,0.70038 -1.02681,1.72648 -1.54126,2.28154 -0.51444,0.55546 -0.93446,1.13588 -0.93446,1.28645 0,0.15005 -0.69903,1.02256 -1.55339,1.92958 -0.85437,0.90703 -1.54835,1.7699 -1.5534,1.92959 -0.005,0.16008 -0.70195,0.7991 -1.54125,1.41992 -0.8393,0.62081 -1.60318,1.34038 -1.69903,1.58978 3.69417,1.1593 11.61588,-8.57803 12.36647,-10.67958 0.3758,-1.17448 0.80844,-2.48516 0.95873,-2.91261 0.74101,-2.10601 -0.77031,-6.77578 -2.19659,-6.78394 z m 288.57916,56.04351 c -0.0464,0.008 -0.10437,0.028 -0.15776,0.0607 -0.21359,0.13227 -0.38835,0.31837 -0.38835,0.41266 0,0.0939 0.17476,0.16986 0.38835,0.16986 0.21359,0 0.38834,-0.18641 0.38834,-0.41258 0,-0.16994 -0.0913,-0.25402 -0.23058,-0.2306 z m -192.99695,11.39561 c -0.0853,0.028 -0.16982,0.0567 -0.25485,0.0849 0.071,-0.0198 0.16243,-0.0514 0.25485,-0.0849 z m -2.30581,0.81309 c -0.61851,0.24904 -1.20765,0.52862 -1.75971,0.83739 0.34169,-0.14287 0.71673,-0.32489 1.17718,-0.55829 0.19471,-0.0985 0.39036,-0.1892 0.58253,-0.2791 z m 241.60116,0.36407 c -3.21626,0.0262 -6.46497,0.36595 -8.7071,0.88275 -6.40398,3.66857 -15.97028,5.02524 -21.53101,10.19009 -3.18311,2.64286 -1.28297,4.529 0.39597,4.95864 1.3024,0 2.95333,-0.62559 6.78396,-2.56065 1.44201,-0.72838 2.83257,-1.32283 3.08251,-1.32283 0.2499,0 0.75282,-0.26551 1.1165,-0.59464 2.99251,-1.64506 6.32871,-2.54863 9.49026,-3.66503 4.15549,-1.6965 8.59217,-2.03767 12.62132,-0.97087 1.17476,0.31106 3.70873,0.93541 5.63105,1.38349 3.14745,0.73366 4.9015,1.31576 8.54366,2.87618 0.64078,0.27487 1.60194,0.68105 2.13592,0.8981 2.03603,0.82628 10.3002,4.88285 10.4854,5.14561 0.1068,0.15087 0.74454,0.59444 1.40776,0.9951 2.24815,1.35887 4.41747,4.77063 4.41747,6.92961 1.93204,7.30074 2.64365,12.30759 3.30096,18.95625 -0.52295,2.25311 -3.34701,4.62363 -5.12135,5.58251 -0.89494,0.47654 -1.97993,1.22749 -2.41504,1.66263 -0.629,0.62858 -3.17474,1.96598 -3.73785,1.96598 -0.0654,0 -0.3925,-0.27119 -0.72815,-0.60676 -0.43014,-0.43021 -0.61893,-1.35615 -0.61893,-3.14321 0,-2.37976 -0.0834,-2.62011 -1.35922,-3.8956 -1.56676,-1.75211 -3.03294,-4.05826 -5.40047,-4.59952 -1.61829,-0.30361 -3.5764,0.28101 -4.89076,1.46842 -0.53235,0.48156 -2.19417,1.47709 -3.68931,2.20877 -2.83692,1.38769 -11.85806,7.15194 -13.20384,8.43442 -4.77495,3.50028 -9.9125,7.51613 -13.90772,10.18199 -1.07565,0.71658 -2.16543,1.50275 -2.42718,1.74757 -0.26178,0.24524 -1.10097,0.96143 -1.86892,1.60193 -0.76796,0.64093 -2.48685,2.27328 -3.82281,3.62865 -2.37152,1.6329 -3.96471,3.59261 -5.65532,5.63105 -0.43534,0.39208 -1.26526,1.37844 -1.83252,2.19658 -0.85207,1.22978 -0.95217,1.63747 -0.59466,2.30585 0.50113,0.93639 0.91994,1.00567 1.63835,0.29126 0.28225,-0.28108 0.78361,-0.67436 1.1165,-0.87378 0.33289,-0.1998 2.31621,-2.1989 4.40533,-4.44177 2.08912,-2.24244 4.05266,-4.16096 4.35678,-4.27183 0.30415,-0.11045 1.37908,-0.94412 2.39077,-1.84466 2.50212,-2.22585 9.88125,-7.86405 10.29123,-7.86405 0.18221,0 1.50785,-0.93743 2.94902,-2.08737 4.58356,-3.68006 10.37084,-6.52331 14.6116,-9.49022 3.34048,-2.06864 8.30484,-5.13206 11.41986,-3.54349 1.82555,0.95115 1.82996,0.98035 2.39077,5.31548 0.24241,1.87421 0.67563,3.76418 0.95874,4.21117 0.28314,0.44703 0.57271,1.14606 0.6432,1.5534 0.0705,0.40737 0.47437,0.94151 0.89806,1.18931 0.91025,0.53243 1.5862,0.25239 3.95629,-1.66263 0.89033,-0.71899 1.71217,-1.31068 1.83252,-1.31068 0.12035,0 0.82724,-0.58155 1.56553,-1.29852 0.73833,-0.717 2.00143,-1.60057 2.81553,-1.96601 3.08882,-1.05287 3.74042,-2.40889 4.78153,-4.73299 1.53008,-8.89457 0.79248,-14.51458 0.61893,-22.81547 0.59511,-1.55086 -4.61992,-8.50459 -7.31793,-9.75725 -7.22862,-3.9986 -19.07685,-13.08708 -25.90156,-14.45141 -1.15607,-0.19097 -2.65806,-0.34322 -4.68087,-0.49999 -1.16792,-0.0905 -2.40382,-0.13142 -3.64076,-0.12136 z m -265.90934,13.53153 c -0.61842,0.026 -1.42654,0.37988 -3.26455,1.17716 -0.64078,0.27794 -1.76431,0.94594 -2.49999,1.49274 -0.73565,0.54629 -1.46872,0.9951 -1.63835,0.9951 -0.4737,0 -1.81174,1.21996 -2.92474,2.66989 -0.99737,1.66799 -0.36847,1.78779 0.70388,2.97331 1.6351,1.59359 1.78698,1.65514 3.83494,1.5534 4.88021,-0.24245 7.2509,-1.61934 7.58492,-4.40531 0.11053,-0.92198 0.48053,-2.08951 0.81311,-2.59712 0.94023,-1.43483 0.54902,-2.60911 -1.10437,-3.38589 -0.66021,-0.31017 -1.02385,-0.49402 -1.50485,-0.47328 z m 400.32638,307.01355 c -4.94807,-0.0834 -7.17588,0.99167 -9.45306,2.06574 -3.48514,1.64384 -6.58796,2.51156 -6.12942,6.42938 1.35436,7.94379 13.0722,6.71049 17.42713,5.716 1.5318,-0.2285 2.07141,-0.79291 1.69903,-1.78397 -0.28901,-0.76928 -0.53649,-0.88297 -1.49272,-0.69175 -14.66651,-8.83431 4.8965,-10.23179 10.47327,-5.89809 0,0.52622 2.64723,0.37843 2.82766,-0.15776 0.50998,-1.51576 -1.10246,-2.53813 -5.35192,-3.42232 -3.50333,-1.01301 -7.15771,-2.28558 -9.99997,-2.25728 z m -364.12504,50.24256 c -0.0765,0.004 -0.14905,0.0294 -0.23058,0.0607 -0.43448,0.16672 -0.45291,0.32322 -0.0849,0.72815 0.25747,0.28334 0.61666,0.35917 0.80097,0.18204 0.42374,-0.40722 0.0503,-0.9972 -0.48544,-0.97087 z"
       id="path3002"
       inkscape:connector-curvature="0"
       sodipodi:nodetypes="ccccsccccccccsscccccccccccccsccccccccccccccsccccccccsccccssccccsccscccccccccccccccccccccccccsccscscsccccscccccccccccccscccccccccccscccsccscccccscssccccccccccccccccccssccccsccccccsccccccccccccccccccccccccscccccccccsccccscccccccssccccccccccccsccccccsccscscsccsscsccccccsccccccccscccsscccccccccccsccccccccccccccccccscscccccccccccsccccccscccccccccccccccscccccccscscccccccccsccscscscccccsccccccccsscccsccccccsccccscccccccsscccsccscccscccscccscccscccccccccccsccccccccccccccccssccccsscccccccccccccscccccccsccccccccccccsccccccccccsssccccccccsscccccccccccccccccssccscccccsccccccscccssccscccscscccsscscccccccccssscsccccssccccccccccccsscccccccccssssccccccccsccccscsscsccccscccccccccccccc" />
    <path
       style="fill:#dddddd;fill-opacity:1;stroke:none"
       d="m 695.58833,562.58233 c -9.9861,41.05397 -2.20957,46.33286 1.71334,31.4258 3.92291,-14.90705 3.92291,-20.39915 1.96145,-26.67579 -1.96145,-6.27664 -3.67479,-4.75001 -3.67479,-4.75001 z"
       id="path3941"
       inkscape:connector-curvature="0" />
    <path
       inkscape:connector-curvature="0"
       id="path3943"
       d="m 721.90646,567.87944 c -3.29997,32.42999 5.21995,35.48571 6.71126,23.67356 1.4913,-11.81212 0.61401,-15.98624 -2.32489,-20.51539 -2.93888,-4.52915 -4.38637,-3.15817 -4.38637,-3.15817 z"
       style="fill:#dddddd;fill-opacity:1;stroke:none" />
    <path
       inkscape:connector-curvature="0"
       id="path3945"
       d="m 655.41463,555.90387 c -16.45633,50.80337 -7.40996,57.55962 -2.72728,40.51901 4.68267,-17.04052 16.39973,-47.43437 13.87815,-54.56584 -2.52158,-7.13151 -11.15087,14.04683 -11.15087,14.04683 z"
       style="fill:#dddddd;fill-opacity:1;stroke:none"
       sodipodi:nodetypes="cssc" />
    <path
       sodipodi:nodetypes="cssc"
       style="fill:#dddddd;fill-opacity:1;stroke:none"
       d="m 1048.1469,902.85036 c 131.1914,-67.21353 115.2527,-102.21882 73.7358,-77.73148 -41.5167,24.48703 -125.56618,60.35561 -129.62443,81.00071 -4.05822,20.64519 55.88863,-3.26923 55.88863,-3.26923 z"
       id="path3953"
       inkscape:connector-curvature="0" />
    <path
       inkscape:connector-curvature="0"
       id="path3955"
       d="m 364.52616,827.63344 c 17.33641,7.77951 26.11839,14.65479 33.31744,12.26808 9.56359,-3.17059 0.27316,-15.23168 -6.11399,-16.50884 -18.67874,-3.73494 -30.70045,-20.74759 -37.17736,-17.5194 -8.12952,4.0519 9.97391,21.76016 9.97391,21.76016 z"
       style="fill:#dddddd;fill-opacity:1;stroke:none"
       sodipodi:nodetypes="csssc" />
    <path
       style="font-size:medium;font-style:normal;font-variant:normal;font-weight:normal;font-stretch:normal;text-indent:0;text-align:start;text-decoration:none;line-height:normal;letter-spacing:normal;word-spacing:normal;text-transform:none;direction:ltr;block-progression:tb;writing-mode:lr-tb;text-anchor:start;baseline-shift:baseline;color:#000000;fill:#000000;fill-opacity:1;stroke:none;stroke-width:5;marker:none;visibility:visible;display:inline;overflow:visible;enable-background:accumulate;font-family:Sans;-inkscape-font-specification:Sans"
       d="m 584.27281,489.33337 c -2.76067,0.0758 -8.13581,1.71886 -11.89144,3.57315 -5.04269,2.48978 -21.04103,12.20998 -38.1084,21.98505 -17.04303,9.76106 -33.02692,18.47765 -34.75806,19.37357 -1.73115,0.89596 -4.61762,2.83013 -5.80006,4.97078 -1.18843,2.15153 -0.42851,4.89043 -0.1335,6.96604 0.59002,4.15117 3.10375,7.82436 3.82281,9.59946 0.89945,2.22046 4.33711,8.78747 8.13104,15.74026 3.79393,6.95276 7.87441,14.13631 9.97569,17.31789 2.09083,3.16577 4.41557,5.85862 7.85192,7.24514 3.43635,1.38648 7.85144,1.41196 13.98054,-0.37623 6.27454,-1.8306 20.57418,-8.82506 34.64794,-16.04364 14.07377,-7.21858 27.79503,-14.6271 32.45136,-17.19656 4.7541,-2.62341 9.12714,-5.32713 11.33144,-9.14526 2.2043,-3.81812 2.17723,-8.80661 0.2826,-13.12407 -3.59639,-8.19535 -17.49599,-35.90097 -21.32275,-43.45862 -1.98072,-3.91175 -4.48012,-6.43314 -7.82765,-7.18444 -0.83687,-0.18781 -1.71326,-0.26796 -2.63348,-0.24272 z m 0.0485,1.95389 c 0.78201,-0.0252 1.49535,0.0326 2.16019,0.18202 2.65934,0.59685 4.67513,2.52753 6.51697,6.16503 3.81835,7.54106 17.77155,35.37977 21.2742,43.36153 1.65488,3.77109 0.94187,5.97124 -1.01768,9.36545 -1.95956,3.3942 -5.1604,7.02735 -9.68964,9.52664 -4.62701,2.55332 -18.41071,10.86781 -32.46002,18.07381 -14.0493,7.206 -28.56894,14.23572 -34.30814,15.91016 -5.88464,1.71685 -9.79444,1.59961 -12.70627,0.42474 -2.91182,-1.17487 -4.94909,-3.46939 -6.95386,-6.50483 -1.99431,-3.01965 -6.10783,-10.25182 -9.89074,-17.18442 -3.78292,-6.93259 -7.30731,-13.71009 -8.04609,-15.53393 -0.91918,-2.26915 -3.18717,-5.61753 -3.68931,-9.15045 -0.25107,-1.76648 -0.088,-3.52585 0.87378,-5.26697 0.96175,-1.74113 2.75568,-3.49895 5.91018,-5.12135 l 0.0243,-0.012 0.0121,-0.012 c 0,0 15.62977,-9.50645 32.69233,-19.27873 17.06256,-9.77228 35.63963,-19.85046 40.42636,-22.21383 3.61644,-1.78559 6.5253,-2.65475 8.87133,-2.73059 z"
       id="path3801"
       inkscape:connector-curvature="0"
       sodipodi:nodetypes="csscsssssssssssscccccsssssssssssscccsscc" />
    <path
       style="font-size:medium;font-style:normal;font-variant:normal;font-weight:normal;font-stretch:normal;text-indent:0;text-align:start;text-decoration:none;line-height:normal;letter-spacing:normal;word-spacing:normal;text-transform:none;direction:ltr;block-progression:tb;writing-mode:lr-tb;text-anchor:start;baseline-shift:baseline;color:#000000;fill:#000000;fill-opacity:1;stroke:none;stroke-width:5;marker:none;visibility:visible;display:inline;overflow:visible;enable-background:accumulate;font-family:Sans;-inkscape-font-specification:Sans"
       d="m 453.31449,556.97882 c -1.61053,0.12939 -3.36606,0.5739 -5.30338,1.33491 -1.12855,0.44333 -3.50112,1.66368 -6.84464,3.37381 -3.34351,1.71009 -8.14865,3.7403 -12.75134,5.97781 -17.27793,8.39923 -40.98726,20.26222 -56.2533,27.84488 -7.95326,3.95043 -14.17471,7.35434 -14.17471,7.35434 l -0.0607,0.0241 -0.0365,0.0365 c -4.22406,2.99747 -6.51563,5.53346 -7.16017,8.38592 -0.64454,2.85246 0.44555,5.69365 2.35436,9.10191 0.73565,1.31355 3.42131,5.90484 5.27909,9.07764 5.31952,9.08475 9.48669,15.26384 14.96356,24.06544 1.31328,2.11052 3.51362,5.88091 5.46115,9.21115 0.97375,1.66512 1.87949,3.22252 2.59708,4.41746 0.3588,0.59748 0.67491,1.10284 0.92233,1.49274 0.24741,0.38986 0.36431,0.60827 0.59464,0.86163 1.47055,1.61747 3.9006,3.3436 6.72328,4.30821 2.8227,0.96466 6.10825,1.13115 8.95629,-0.66745 0.27891,-0.17615 1.26898,-0.67363 2.64563,-1.34706 1.37664,-0.67348 3.19313,-1.55091 5.31551,-2.60924 4.24477,-2.11661 9.72411,-4.95738 15.48539,-8.3616 12.41445,-7.33551 27.49442,-16.63502 39.76929,-24.33247 6.13743,-3.84872 11.57796,-7.30145 15.63102,-9.90288 4.05305,-2.60143 6.61056,-4.27292 7.36648,-4.85435 1.97722,-1.52085 3.04641,-3.85509 3.15533,-6.61408 0.10891,-2.75894 -0.68102,-5.96607 -2.33009,-9.53876 -2.00791,-4.35012 -8.14721,-15.57999 -13.39802,-25.92225 -1.67379,-3.2968 -3.24193,-6.66739 -4.57523,-9.51453 -1.3333,-2.84717 -2.40503,-5.13346 -3.21601,-6.40775 -1.92828,-3.02993 -4.00914,-5.22926 -6.699,-6.23788 -1.34493,-0.50427 -2.80693,-0.68765 -4.41746,-0.55821 z m -0.15603,2.41502 c 1.36554,-0.11297 2.55381,0.0506 3.61649,0.44905 2.12537,0.79693 4.2008,2.12084 6.01767,4.97567 0.65099,1.02291 1.76381,3.34744 3.09465,6.18934 1.33083,2.84185 2.90477,6.23718 4.5995,9.57519 5.27076,10.3816 11.46756,21.71974 13.37374,25.84943 1.56108,3.38205 2.23977,6.32953 2.14805,8.65291 -0.0917,2.32333 -0.89033,3.99148 -2.39077,5.14561 -0.43323,0.3332 -3.19998,2.17304 -7.24512,4.76938 -4.04514,2.59634 -9.47427,6.03299 -15.60675,9.87861 -12.26495,7.69124 -27.33235,16.98806 -39.72074,24.30816 -5.70384,3.37031 -11.15452,6.19586 -15.37616,8.30094 -2.11083,1.05258 -3.70024,1.22706 -5.08321,1.90364 -1.38296,0.67655 -2.30319,1.12509 -2.82766,1.45631 -2.23473,1.41126 -4.83297,1.31421 -7.29366,0.47328 -2.4607,-0.84093 -4.91366,-1.76799 -6.11824,-3.09292 0.0536,0.0589 -0.16842,-0.22901 -0.40046,-0.59468 -0.23208,-0.36563 -0.54373,-0.85406 -0.89806,-1.44415 -0.70869,-1.18015 -1.61203,-2.74162 -2.58496,-4.40531 -1.94582,-3.3274 -4.13696,-7.08052 -5.48542,-9.24758 -5.49505,-8.83077 -8.53982,-14.28931 -13.8297,-23.32342 -1.85693,-3.17133 -5.68321,-8.50886 -6.37652,-9.74684 -1.83635,-3.27894 -2.62563,-5.61711 -2.14808,-7.73054 0.476,-2.10659 2.30598,-4.32297 6.34709,-7.1966 0.0132,-0.009 0.0233,-0.0147 0.0365,-0.0241 0.15009,-0.0819 6.19702,-3.37308 14.01692,-7.25726 15.24601,-7.57272 39.5141,-19.30507 56.79595,-27.7062 4.62462,-2.24819 8.88936,-4.41851 12.23297,-6.12864 3.34361,-1.71013 5.56658,-2.49394 6.38521,-2.81553 1.80786,-0.71017 3.35531,-1.10062 4.72086,-1.21359 z"
       id="path3026"
       inkscape:connector-curvature="0"
       sodipodi:nodetypes="ccssscccsssssscccccsssssssssscccccssssscssscccscccsssssccsssccc" />
  </g>
</svg>
